<svg id="Capa_1" enable-background="new 0 0 512 512" height="512" viewBox="0 0 512 512" width="512" xmlns="http://www.w3.org/2000/svg"><g><path d="m496 332h-45v-76.5c0-8.284-6.716-15-15-15h-165v-30.5h75c8.284 0 15-6.716 15-15v-180c0-8.284-6.716-15-15-15h-180c-8.284 0-15 6.716-15 15v180c0 8.284 6.716 15 15 15h75v30.5h-165c-8.284 0-15 6.716-15 15v76.5h-45c-8.284 0-15 6.716-15 15v150c0 8.284 6.716 15 15 15h60c41.355 0 75-33.645 75-75v-90c0-8.284-6.716-15-15-15h-45v-61.5h150v61.5h-45c-8.284 0-15 6.716-15 15v150c0 8.284 6.716 15 15 15h60c41.355 0 75-33.645 75-75v-90c0-8.284-6.716-15-15-15h-45v-61.5h150v61.5h-45c-8.284 0-15 6.716-15 15v150c0 8.284 6.716 15 15 15h60c41.355 0 75-33.645 75-75v-90c0-8.284-6.716-15-15-15zm-315-242h150v30h-150zm150-60v30h-150v-30zm-150 120h150v30h-150zm-90 329.42v-27.42h27.42c-4.527 12.764-14.656 22.893-27.42 27.42zm30-57.42h-45c-8.284 0-15 6.716-15 15v45h-30v-120h90zm150 57.42v-27.42h27.42c-4.527 12.764-14.656 22.893-27.42 27.42zm30-57.42h-45c-8.284 0-15 6.716-15 15v45h-30v-120h90zm90-60h90v60h-45c-8.284 0-15 6.716-15 15v45h-30zm60 117.42v-27.42h27.42c-4.527 12.764-14.656 22.893-27.42 27.42z"/></g></svg>